# xmcd
#
# Track frame offsets:
#	150
#	25832
#	44422
#	69852
#	91897
#	115704
#	139577
#	160572
#	176955
#	191760
#	215390
#	238800
#
# Disc length: 3485 seconds
#
# Revision: 1
# Processed by: cddbd v1.4PL0 Copyright (c) Steve Scherf et al.
# Submitted via: audiograbber 1.80
#
DISCID=9e0d9b0c
DTITLE=Paco Ribas, Yolanda Molina y Diego Cruz - Insolito Club
DYEAR=1900
DGENRE=
TTITLE0=Donde te lleve el corazón
TTITLE1=No te pares
TTITLE2=Amandonos
TTITLE3=Tu eres mi mundo
TTITLE4=Yo y Mrs. Jones
TTITLE5=Nubes
TTITLE6=Sensaciones
TTITLE7=Siempre que tu quieras
TTITLE8=Todo va cambiando
TTITLE9=Al amanecer
TTITLE10=Junto a mi
TTITLE11=Insólito Club
EXTD=
EXTT0=
EXTT1=
EXTT2=
EXTT3=
EXTT4=
EXTT5=
EXTT6=
EXTT7=
EXTT8=
EXTT9=
EXTT10=
EXTT11=
PLAYORDER=
